<svg width="20" height="24" viewBox="0 0 20 24" fill="none" xmlns="http://www.w3.org/2000/svg">
<g id="icon_2">
<path id="ico/basket" fill-rule="evenodd" clip-rule="evenodd" d="M9.99939 -0.00012207C9.34939 -0.00012207 8.70938 0.132278 8.10938 0.388878C7.51937 0.645578 6.97941 1.02118 6.51941 1.49348C6.06941 1.96568 5.70935 2.52538 5.45935 3.13998C5.28935 3.56548 5.17938 4.01188 5.11938 4.46668H1.99939C0.89939 4.46668 -0.000610352 5.36208 -0.000610352 6.46668V21.9956C-0.000610352 23.1002 0.89939 23.9956 1.99939 23.9956H17.9994C19.0994 23.9956 19.9994 23.1002 19.9994 21.9956V6.46668C19.9994 5.36208 19.0994 4.46668 17.9994 4.46668H14.8794C14.8194 4.01188 14.7094 3.56548 14.5394 3.13998C14.2894 2.52538 13.9294 1.96568 13.4794 1.49348C13.0194 1.02118 12.4794 0.645578 11.8894 0.388878C11.2894 0.132278 10.6494 -0.00012207 9.99939 -0.00012207ZM13.8694 4.46668C13.8194 4.13898 13.7294 3.81798 13.6094 3.51078C13.4094 3.01478 13.1194 2.56528 12.7594 2.18748C12.3994 1.80968 11.9594 1.51108 11.4894 1.30768C11.0194 1.10428 10.5094 0.999878 9.99939 0.999878C9.48939 0.999878 8.9794 1.10428 8.5094 1.30768C8.0394 1.51108 7.59938 1.80968 7.23938 2.18748C6.87938 2.56528 6.5894 3.01478 6.3894 3.51078C6.2694 3.81798 6.17939 4.13898 6.12939 4.46668H13.8694ZM1.99939 5.46668H17.9994C18.5494 5.46668 18.9994 5.91438 18.9994 6.46668V21.9956C18.9994 22.5479 18.5494 22.9956 17.9994 22.9956H1.99939C1.44939 22.9956 0.99939 22.5479 0.99939 21.9956V6.46668C0.99939 5.91438 1.44939 5.46668 1.99939 5.46668Z" fill="black"/>
</g>
</svg>
